<svg enable-background="new 0 0 1024 1024" height="1024" image-rendering="optimizeSpeed" viewBox="0 0 1024 1024" width="1024" xmlns="http://www.w3.org/2000/svg"><path d="m969.65 351.3q-8.6-20.85-19.4-40.85c-4.05-7.55-8.35-15.05-12.9-22.4-19.55-31.7-43.4-61.65-71.55-89.8-92.15-92.15-203.45-138.25-333.8-138.25s-241.6 46.1-333.75 138.25-138.25 203.4-138.25 333.75 46.1 241.65 138.25 333.8 203.4 138.2 333.75 138.2 241.65-46.05 333.8-138.2c50.75-50.8 87.55-107.4 110.35-169.75 18.55-50.85 27.85-105.5 27.85-164.05 0-44.9-5.45-87.55-16.4-127.95-1.25-4.55-2.55-9.1-3.9-13.6-4.1-13.3-8.8-26.35-14.05-39.15z" fill-opacity=".098039"/><path d="m855.7 188.4c-3-3.15-6.4-6.65-9.85-10.1-72.45-72.45-156.75-116.45-252.8-131.9-.3-.05-.6-.1-.85-.15-16.25-2.6-32.8-4.4-50.05-5.35-9.7-.55-19.85-.85-30.1-.85-9.35 0-18.6.25-27.9.75-118.35 6.1-220.3 51.95-305.85 137.5-56.5 56.5-95.65 120.15-117.45 190.7q-20.8 67.2-20.8 143.05c0 130.35 46.1 241.65 138.25 333.8 3.4 3.4 6.85 6.75 10.1 9.85 45.55 43.15 95.3 75.3 149 96.45 6.45 2.6 12.6 4.85 18.8 6.95 40.5 13.85 83.05 21.9 127.95 24.25h.4c8.5.45 16.6.7 24.5.7h3c10.3 0 20.5-.3 30.1-.8 2.5-.15 4.75-.3 6.95-.45 20.2-1.45 39.9-4.05 58.7-7.7 7.95-1.55 15.8-3.3 23.4-5.15 64.7-16.25 123.35-45.95 176.15-89.15 13.25-10.9 26.05-22.5 38.5-34.95 48.6-48.6 84.4-102.5 107.35-161.8 3.95-10.25 7.55-20.65 10.75-31.15 11.7-38.65 18.3-79.4 19.8-122.35.2-6.05.3-12.25.3-18.5 0-.65 0-1.35 0-2 0-.35 0-.65 0-1-.2-40.65-4.95-79.5-14.3-117-1.1-4.35-2.35-9-3.65-13.6-2.25-7.85-4.75-15.8-7.55-23.8-.3-.75-.6-1.65-.9-2.55-6.45-18.25-14.15-36.05-23.15-53.65-3.8-7.4-7.95-14.95-12.3-22.4-18-30.6-40.1-59.75-66.5-87.65z" fill="#fff"/><path d="m855.7 188.4c-3-3.15-6.4-6.65-9.85-10.1-72.45-72.45-156.75-116.45-252.8-131.9-.3-.05-.6-.1-.85-.15-16.25-2.6-32.8-4.4-50.05-5.35-9.7-.55-19.85-.85-30.1-.85-9.35 0-18.6.25-27.9.75-118.35 6.1-220.3 51.95-305.85 137.5-56.5 56.5-95.65 120.15-117.45 190.7q-20.8 67.2-20.8 143.05c0 130.35 46.1 241.65 138.25 333.8 3.4 3.4 6.85 6.75 10.1 9.85l35.925-35.925.025.025c-3.2-3-6.7-6.4-10.2-9.9-82.25-82.25-123.35-181.5-123.35-297.8 0-116.35 41.1-215.65 123.35-297.9s181.55-123.35 297.9-123.35 215.6 41.1 297.85 123.35c3.45 3.45 6.85 6.95 9.85 10.15z" fill="#fffdfb"/><path d="m966.1 378.45c-2.25-7.85-4.75-15.8-7.55-23.8-.3-.75-.6-1.65-.9-2.55-6.45-18.25-14.15-36.05-23.15-53.65-3.8-7.4-7.95-14.95-12.3-22.4-18-30.6-40.1-59.75-66.5-87.65l-35.95 35.95c75.8 80.45 113.55 176.3 113.55 287.75 0 116.3-41.15 215.55-123.4 297.8s-181.5 123.4-297.85 123.4c-111.4 0-207.2-37.75-287.7-113.5l-.025-.025-35.925 35.925c45.55 43.15 95.3 75.3 149 96.45 6.45 2.6 12.6 4.85 18.8 6.95 40.5 13.85 83.05 21.9 127.95 24.25h.4c8.5.45 16.6.7 24.5.7h3c10.3 0 20.5-.3 30.1-.8 2.5-.15 4.75-.3 6.95-.45 20.2-1.45 39.9-4.05 58.7-7.7 7.95-1.55 15.8-3.3 23.4-5.15 64.7-16.25 123.35-45.95 176.15-89.15 13.25-10.9 26.05-22.5 38.5-34.95 48.6-48.6 84.4-102.5 107.35-161.8 3.95-10.25 7.55-20.65 10.75-31.15 11.7-38.65 18.3-79.4 19.8-122.35.2-6.05.3-12.25.3-18.5 0-.65 0-1.35 0-2 0-.35 0-.65 0-1-.2-40.65-4.95-79.5-14.3-117-1.1-4.35-2.35-9-3.65-13.6zm-190.3-130.15c3.4 3.4 6.75 6.85 9.85 10.15l34.1-34.1c-3-3.2-6.4-6.7-9.85-10.15-82.25-82.25-181.5-123.35-297.85-123.35s-215.65 41.1-297.9 123.35-123.35 181.55-123.35 297.9c0 116.3 41.1 215.55 123.35 297.8 3.5 3.5 7 6.9 10.2 9.9l-.025-.025 34.125-34.1v.025c-3.35-3.15-6.8-6.5-10.2-9.9-72.85-72.8-109.25-160.7-109.25-263.7 0-103.05 36.4-190.95 109.25-263.8s160.75-109.25 263.8-109.25 190.95 36.4 263.75 109.25zm9.85 10.15c66.35 70.95 99.45 155.45 99.45 253.65 0 103-36.45 190.9-109.3 263.7-72.8 72.85-160.7 109.3-263.75 109.3-98.2 0-182.7-33.1-253.6-99.4-3.35-3.15-6.8-6.5-10.2-9.9-72.85-72.8-109.25-160.7-109.25-263.7 0-103.05 36.4-190.95 109.25-263.8s160.75-109.25 263.8-109.25 190.95 36.4 263.75 109.25c3.4 3.4 6.75 6.85 9.85 10.15z" fill="#dfd5c9"/><path d="m707.6 336.55c-3-3.3-6.35-6.8-9.8-10.25-51.3-51.25-113.2-76.9-185.75-76.9s-134.45 25.65-185.75 76.9c-51.3 51.3-76.95 113.25-76.95 185.8 0 72.5 25.65 134.4 76.95 185.7 3.45 3.45 6.95 6.8 10.25 9.8 49.4 44.85 107.85 67.15 175.5 67.15 72.55 0 134.45-25.65 185.75-76.95s76.95-113.2 76.95-185.7c0-67.65-22.3-126.15-67.15-175.55zm-75.95 55.9c3.25 3.25 6.35 6.6 9.3 10 .1.15.2.25.35.4l-.025-.025.025.025c26.65 31.15 39.85 67.4 39.85 109.2 0 46.7-16.5 86.55-49.5 119.6-33.05 33-72.9 49.5-119.6 49.5-41.7 0-77.9-13.15-109.2-39.85l-.025-.025.025.025c-3.2-2.75-6.85-6.1-10.4-9.65-33-33.05-49.5-72.9-49.5-119.6s16.5-86.55 49.5-119.6c33.05-33 72.9-49.5 119.6-49.5s86.55 16.5 119.6 49.5z" fill="#ded5ca"/><path d="m631.65 392.45c-33.05-33-72.9-49.5-119.6-49.5s-86.55 16.5-119.6 49.5c-33 33.05-49.5 72.9-49.5 119.6s16.5 86.55 49.5 119.6c3.55 3.55 7.2 6.9 10.4 9.65l-.025-.025.025.025c31.3 26.7 67.5 39.85 109.2 39.85 46.7 0 86.55-16.5 119.6-49.5 33-33.05 49.5-72.9 49.5-119.6 0-41.8-13.2-78.05-39.85-109.2l-.025-.025.025.025c-.15-.15-.25-.25-.35-.4-2.95-3.4-6.05-6.75-9.3-10zm188.1-168.1-34.1 34.1c66.35 70.95 99.45 155.45 99.45 253.65 0 103-36.45 190.9-109.3 263.7-72.8 72.85-160.7 109.3-263.75 109.3-98.2 0-182.7-33.1-253.6-99.4v-.025l-34.125 34.1.025.025c80.5 75.75 176.3 113.5 287.7 113.5 116.35 0 215.6-41.15 297.85-123.4s123.4-181.5 123.4-297.8c0-111.45-37.75-207.3-113.55-287.75z" fill="#fffdfb"/><path d="m785.6 258.4c-3.1-3.3-6.45-6.75-9.85-10.15-72.8-72.85-160.7-109.25-263.75-109.25s-190.95 36.4-263.8 109.25-109.25 160.75-109.25 263.8c0 103 36.4 190.9 109.25 263.7 3.4 3.4 6.85 6.75 10.2 9.9 70.9 66.3 155.4 99.4 253.6 99.4 103.05 0 190.95-36.45 263.75-109.3q109.3-109.2 109.3-263.7c0-98.2-33.1-182.7-99.45-253.65zm-78.05 78.1c44.85 49.4 67.15 107.9 67.15 175.55 0 72.5-25.65 134.4-76.95 185.7s-113.2 76.95-185.75 76.95c-67.65 0-126.1-22.3-175.5-67.15-3.3-3-6.8-6.35-10.25-9.8-51.3-51.3-76.95-113.2-76.95-185.7 0-72.55 25.65-134.5 76.95-185.8 51.3-51.25 113.2-76.9 185.75-76.9s134.45 25.65 185.75 76.9c3.45 3.45 6.8 6.95 9.8 10.25z" fill="#53c4ef"/><path d="m441.15 310.5q-8 0-8 8v86.55l56.9 42-56.9 49v209.55c0 5.35 2.65 8 8 8h141.8c5.35 0 8-2.65 8-8v-43.525l-56.75-48.875 56.75-41.9v-252.8c0-5.35-2.65-8-8-8z" fill="#333"/></svg>