<svg height="48pt" viewBox="0 0 48 48" width="48pt" xmlns="http://www.w3.org/2000/svg" xmlns:xlink="http://www.w3.org/1999/xlink"><linearGradient id="a" gradientUnits="userSpaceOnUse" x1="4.8749773" x2="42.2805413" y1="15.4999847" y2="45.3341534"><stop offset="0" stop-color="#00c4ff"/><stop offset=".83888397938" stop-color="#0072ff"/></linearGradient><path d="m15.274 3.822h17.452c3.032 0 5.955 1.211 8.093 3.359 2.148 2.138 3.359 5.061 3.359 8.093v17.452c0 3.032-1.211 5.955-3.359 8.093-2.138 2.148-5.061 3.359-8.093 3.359h-17.452c-3.032 0-5.955-1.211-8.093-3.359-2.148-2.138-3.359-5.061-3.359-8.093v-17.452c0-3.032 1.211-5.955 3.359-8.093 2.138-2.148 5.061-3.359 8.093-3.359zm0-3.272h17.452c3.904 0 7.656 1.549 10.416 4.308 2.759 2.76 4.308 6.512 4.308 10.416v17.452c0 3.904-1.549 7.656-4.308 10.416-2.76 2.759-6.512 4.308-10.416 4.308h-17.452c-3.904 0-7.656-1.549-10.416-4.308-2.759-2.76-4.308-6.512-4.308-10.416v-17.452c0-3.904 1.549-7.656 4.308-10.416 2.76-2.759 6.512-4.308 10.416-4.308zm-5.485 11.95 6.477 21.484c.007.013.012.017.019.03.228.854 1 1.486 1.926 1.486.878 0 1.616-.57 1.885-1.357.006-.012.02-.026.025-.038l6.512-21.605h-2.088l-6.334 21.01-6.334-21.01zm23.422 0c-2.761 0-5 2.239-5 5v5h2v-2-1-2c0-1.681 1.319-3 3-3 1.68 0 3 1.319 3 3v2 1 2h2v-5c0-2.761-2.239-5-5-5zm0 13c-2.761 0-5 2.239-5 5s2.239 5 5 5h5v-2h-2-1-2c-1.681 0-3-1.319-3-3s1.319-3 3-3h2 1 2v-2z" fill="url(#a)" fill-rule="evenodd"/></svg>